<?xml version="1.0" encoding="UTF-8"?>
<svg id="Layer_1" xmlns="http://www.w3.org/2000/svg" version="1.1" xmlns:xlink="http://www.w3.org/1999/xlink" viewBox="0 0 40 40">
  <!-- Generator: Adobe Illustrator 30.0.0, SVG Export Plug-In . SVG Version: 2.1.1 Build 123)  -->
  <defs>
    <style>
      .st0 {
        fill: none;
      }

      .st1 {
        fill: #0e726f;
      }

      .st2 {
        clip-path: url(#clippath);
      }
    </style>
    <clipPath id="clippath">
      <rect class="st0" width="40" height="40"/>
    </clipPath>
  </defs>
  <g class="st2">
    <g>
      <path class="st1" d="M35.7,19.3l-15-15c-.6-.6-1.4-1-2.4-1H6.7c-1.8,0-3.3,1.5-3.3,3.3v11.7c0,.9.4,1.8,1,2.4l15,15c.6.6,1.4,1,2.4,1s1.8-.4,2.4-1l11.7-11.7c.6-.6,1-1.4,1-2.4s-.4-1.8-1-2.4ZM21.7,33.3l-15-15V6.7h11.7s15,15,15,15l-11.7,11.7Z"/>
      <path class="st1" d="M10.8,13.3c1.4,0,2.5-1.1,2.5-2.5s-1.1-2.5-2.5-2.5-2.5,1.1-2.5,2.5,1.1,2.5,2.5,2.5Z"/>
    </g>
  </g>
</svg>